<svg fill="none" height="1110" viewBox="0 0 1920 1110" width="1920" xmlns="http://www.w3.org/2000/svg" xmlns:xlink="http://www.w3.org/1999/xlink"><linearGradient id="a" gradientUnits="userSpaceOnUse" x1="-44.4195" x2="496.372" y1="12.1998" y2="464.987"><stop offset="0" stop-color="#b6fcff"/><stop offset="1" stop-color="#c8f8fb" stop-opacity="0"/></linearGradient><linearGradient id="b" gradientUnits="userSpaceOnUse" x1="2437" x2="1272.43" y1="-60.0002" y2="705.308"><stop offset="0" stop-color="#f9f3bf"/><stop offset="1" stop-color="#f9f3bf" stop-opacity="0"/></linearGradient><path d="m415.958 590.566c-9.699 179.209-252.484 222.956-372.6642 222.429-250.9028-48.491-156.5508-377.391-197.1378-444.858-84.337-162.341-123.343-303.5996 93.2979-577.683 216.6401-274.083 348.9441-39.004 588.2501-31.625s266.189 198.7105 287.273 260.3793c21.084 61.6687-10.542 210.3057-137.047 210.3057-300.978 2.636-261.972 302.546-261.972 361.052z" fill="url(#a)"/><path d="m1262.84 733.993c-23.34 193.591 256.81 292.887 399.79 318.337 307.74 2.5 259.55-369.371 320.93-432.677 131.85-155.213 205.7-297.711 1.45-637.473s-407.28-117.208-693.23-161.121c-285.95-43.914-355.133 154.7126-392.197 216.0445-37.065 61.3318-28.379 227.0025 122.027 254.3855 357.33 67.963 252.61 379.987 241.23 442.504z" fill="url(#b)"/></svg>