<svg width="1920" height="913" viewBox="0 0 1920 913" fill="none" xmlns="http://www.w3.org/2000/svg">
<g clip-path="url(#clip0_1768_4973)">
<path opacity="0.08" d="M7813.29 1248.26C7813.28 -2999.26 4370 -6442.55 122.478 -6442.55C-4125.04 -6442.54 -7568.33 -2999.26 -7568.33 1248.26C-7568.33 5495.78 -4125.04 8939.07 122.478 8939.07C4370 8939.07 7813.29 5495.78 7813.29 1248.26Z" stroke="#22C55E" stroke-width="60" stroke-linecap="round" stroke-linejoin="round"/>
<path opacity="0.08" d="M7201.22 1248.26C7201.22 -2661.22 4031.96 -5830.48 122.475 -5830.48C-3787.01 -5830.48 -6956.27 -2661.22 -6956.26 1248.26C-6956.26 5157.75 -3787.01 8327 122.476 8327C4031.96 8327 7201.22 5157.75 7201.22 1248.26Z" stroke="#22C55E" stroke-width="60" stroke-linecap="round" stroke-linejoin="round"/>
<path opacity="0.08" d="M6588.92 1248.26C6588.92 -2323.05 3693.79 -5218.18 122.48 -5218.18C-3448.83 -5218.18 -6343.97 -2323.05 -6343.97 1248.26C-6343.97 4819.57 -3448.83 7714.71 122.48 7714.71C3693.79 7714.71 6588.92 4819.57 6588.92 1248.26Z" stroke="#22C55E" stroke-width="60" stroke-linecap="round" stroke-linejoin="round"/>
<path opacity="0.08" d="M5976.85 1248.26C5976.85 -1985.01 3355.75 -4606.12 122.476 -4606.12C-3110.8 -4606.12 -5731.91 -1985.01 -5731.91 1248.26C-5731.91 4481.54 -3110.8 7102.64 122.477 7102.64C3355.75 7102.64 5976.86 4481.54 5976.85 1248.26Z" stroke="#22C55E" stroke-width="60" stroke-linecap="round" stroke-linejoin="round"/>
<path opacity="0.08" d="M5364.58 1248.26C5364.58 -1646.87 3017.6 -3993.84 122.474 -3993.84C-2772.66 -3993.84 -5119.62 -1646.87 -5119.62 1248.26C-5119.62 4143.39 -2772.65 6490.35 122.475 6490.35C3017.6 6490.35 5364.58 4143.39 5364.58 1248.26Z" stroke="#22C55E" stroke-width="60" stroke-linecap="round" stroke-linejoin="round"/>
<path opacity="0.08" d="M4752.49 1248.26C4752.49 -1308.83 2679.57 -3381.75 122.478 -3381.75C-2434.62 -3381.75 -4507.55 -1308.83 -4507.55 1248.26C-4507.55 3805.36 -2434.62 5878.29 122.479 5878.29C2679.57 5878.29 4752.49 3805.36 4752.49 1248.26Z" stroke="#22C55E" stroke-width="60" stroke-linecap="round" stroke-linejoin="round"/>
<path opacity="0.08" d="M4140.21 1248.26C4140.21 -970.69 2341.39 -2769.47 122.477 -2769.47C-2096.47 -2769.47 -3895.26 -970.69 -3895.26 1248.26C-3895.26 3467.18 -2096.47 5266 122.477 5266C2341.39 5266 4140.21 3467.18 4140.21 1248.26Z" stroke="#22C55E" stroke-width="60" stroke-linecap="round" stroke-linejoin="round"/>
<path opacity="0.08" d="M3528.15 1248.26C3528.15 -632.617 2003.39 -2157.41 122.477 -2157.41C-1758.44 -2157.41 -3283.2 -632.616 -3283.2 1248.26C-3283.2 3129.18 -1758.44 4653.94 122.477 4653.94C2003.39 4653.94 3528.15 3129.18 3528.15 1248.26Z" stroke="#22C55E" stroke-width="60" stroke-linecap="round" stroke-linejoin="round"/>
<path opacity="0.08" d="M2915.85 1248.26C2915.85 -294.475 1665.22 -1545.1 122.48 -1545.1C-1420.26 -1545.1 -2670.89 -294.475 -2670.89 1248.26C-2670.89 2791 -1420.26 4041.63 122.48 4041.63C1665.22 4041.63 2915.85 2791 2915.85 1248.26Z" stroke="#22C55E" stroke-width="60" stroke-linecap="round" stroke-linejoin="round"/>
<path opacity="0.08" d="M2303.79 1248.26C2303.79 43.5599 1327.18 -933.047 122.48 -933.047C-1082.22 -933.046 -2058.83 43.5601 -2058.83 1248.26C-2058.83 2452.96 -1082.22 3429.57 122.48 3429.57C1327.18 3429.57 2303.79 2452.96 2303.79 1248.26Z" stroke="#22C55E" stroke-width="60" stroke-linecap="round" stroke-linejoin="round"/>
<path opacity="0.08" d="M1691.51 1248.26C1691.51 381.705 989.033 -320.771 122.475 -320.771C-744.082 -320.771 -1446.56 381.705 -1446.56 1248.26C-1446.56 2114.82 -744.082 2817.29 122.475 2817.29C989.033 2817.29 1691.51 2114.82 1691.51 1248.26Z" stroke="#22C55E" stroke-width="60" stroke-linecap="round" stroke-linejoin="round"/>
<path opacity="0.08" d="M1079.41 1248.26C1079.41 719.742 650.999 291.327 122.476 291.327C-406.046 291.327 -834.462 719.743 -834.462 1248.26C-834.462 1776.79 -406.046 2205.2 122.476 2205.2C650.999 2205.2 1079.41 1776.79 1079.41 1248.26Z" stroke="#22C55E" stroke-width="60" stroke-linecap="round" stroke-linejoin="round"/>
</g>
<defs>
<clipPath id="clip0_1768_4973">
<rect width="913" height="1920" fill="white" transform="translate(0 913) rotate(-90)"/>
</clipPath>
</defs>
</svg>
