<svg fill="none" height="920" viewBox="0 0 1919 920" width="1919" xmlns="http://www.w3.org/2000/svg" xmlns:xlink="http://www.w3.org/1999/xlink"><clipPath id="a"><path d="m0 0h1919v920h-1919z"/></clipPath><g clip-path="url(#a)"><path d="m1748.92 776.687s-56.36 90.115 35.99 90.115 32.34-93.199 32.34-93.199 21.35-6.748-3.42-57.004c-24.76-50.256-35.83-50.272-46.11-50.272-13 0-25.1 21.762-16.24 55.164 0 .032-32.41 41.716-2.56 55.196z" fill="#f0f6f5"/><path d="m1792.98 926.551-8.9-135.722-8.89 135.722z" fill="#143334"/><path d="m1787.69 847.736-33.51-28.106 26.29 31.819z" fill="#143334"/><path d="m167.953 755.544s64.312 102.826-40.931 102.826c-105.2433 0-37.014-106.313-37.014-106.313s-24.3833-7.693 3.8862-65.056c28.2698-57.363 40.8998-57.363 52.6218-57.363 14.824 0 28.645 24.745 18.522 62.987 0-.023 37.014 47.532 2.915 62.919z" fill="#f0f6f5"/><g fill="#2a9d8f"><path d="m117.68 926.552 10.155-154.88 10.154 154.88z" opacity=".4"/><path d="m123.7 836.615 38.267-32.078-29.993 36.308z" opacity=".4"/><path d="m0 927.352s292.406-98.807 559.229-98.807c320.771 0 640.151 99.455 640.151 99.455h-1199.38"/><path d="m1738.91 786.39s26.29-7.491 47.23 18.581c21.42 26.735-5.42 44.348-26.72 33.903 0 0-16.69 25.168-50.09 19.179-33.4-5.99-38.84-25.169-38.84-25.169s-29.62 1.502-30.48-14.384c-.85-15.886 20.9-29.963 20.9-29.963s1.23-39.553 37.13-39.262 40.87 37.115 40.87 37.115z"/></g><path d="m1714.48 926.55-7.51-117.689-7.53 117.689z" fill="#143334"/><path d="m1710.19 851.676 22.07-31.61-28.52 28.833z" fill="#143334"/><path d="m712.566 927.355s331.404-77.587 562.514-79.467 643.92 80.112 643.92 80.112h-1206.434" fill="#143334"/><path d="m1105.75 539.191h-225.868s50.476-52.461 90.184-52.461c39.704 0 51.504 34.974 51.504 34.974s28.05-16.295 53.84-13.397c25.8 2.899 30.34 30.884 30.34 30.884z" fill="#f0f6f5" opacity=".5"/><path d="m886.941 114.017h-165.293s28.386-60.9723 59.192-61.7868c30.807-.8145 46.984 46.1434 46.984 46.1434s47.908-43.3349 59.117 15.6434z" fill="#f0f6f5" opacity=".5"/><path d="m1739.33 83.7372c32.22 0 58.33-18.7452 58.33-41.8686s-26.11-41.8686-58.33-41.8686c-32.21 0-58.33 18.7452-58.33 41.8686s26.12 41.8686 58.33 41.8686z" fill="#fdb52a" opacity=".2"/><path d="m1756.56 68.7966c20.98-7.1189 29.95-25.0988 20.03-40.1592-9.92-15.0603-34.97-21.49802-55.95-14.379-20.98 7.119-29.95 25.0988-20.03 40.1592 9.92 15.0603 34.97 21.498 55.95 14.379z" fill="#fdb52a" opacity=".4"/><path d="m1855.51 86.9684h-233.83s23.2-45.4538 58.88-45.4538 46.84 31.3781 46.84 31.3781 24.09-17.0529 43.87-17.0529c19.79 0 36.92 22.5242 36.92 22.5242s27.99-12.0805 47.32 8.6044z" fill="#f0f6f5"/></g></svg>