<svg fill="none" height="934" viewBox="0 0 1920 934" width="1920" xmlns="http://www.w3.org/2000/svg" xmlns:xlink="http://www.w3.org/1999/xlink"><linearGradient id="a" gradientUnits="userSpaceOnUse" x1="-53.5" x2="459.5" y1="-6.00001" y2="423.5"><stop offset="0" stop-color="#b6fcff"/><stop offset="1" stop-color="#c8f8fb" stop-opacity="0"/></linearGradient><linearGradient id="b" gradientUnits="userSpaceOnUse" x1="2000.99" x2="1322.24" y1="908.501" y2="337.531"><stop offset="0" stop-color="#f9f3bf"/><stop offset="1" stop-color="#faf2c0" stop-opacity="0"/></linearGradient><linearGradient id="c"><stop offset="0" stop-color="#fff"/><stop offset="1" stop-color="#fff" stop-opacity="0"/></linearGradient><linearGradient id="d" gradientUnits="userSpaceOnUse" x1="2452.53" x2="196.472" xlink:href="#c" y1="-863.673" y2="5889.29"/><linearGradient id="e" gradientUnits="userSpaceOnUse" x1="2375.72" x2="276.287" xlink:href="#c" y1="-628.763" y2="5655.39"/><linearGradient id="f" gradientUnits="userSpaceOnUse" x1="489.363" x2="2658.56" y1="357.134" y2="16.152"><stop offset="0" stop-color="#fff"/><stop offset=".753894" stop-color="#fff" stop-opacity="0"/></linearGradient><linearGradient id="g" gradientUnits="userSpaceOnUse" x1="456.115" x2="2589.04" y1="552.217" y2="210.085"><stop offset="0" stop-color="#fff"/><stop offset=".729714" stop-color="#fff" stop-opacity="0"/></linearGradient><linearGradient id="h" gradientUnits="userSpaceOnUse" x1="1064.53" x2="2564.05" xlink:href="#c" y1="1046.07" y2="304.934"/><linearGradient id="i" gradientUnits="userSpaceOnUse" x1="1243.63" x2="2329.72" xlink:href="#c" y1="1139.33" y2="680.722"/><linearGradient id="j" gradientUnits="userSpaceOnUse" x1="1991.68" x2="675.365" xlink:href="#c" y1="545.787" y2="4485.87"/><linearGradient id="k" gradientUnits="userSpaceOnUse" x1="1914.88" x2="755.182" xlink:href="#c" y1="780.695" y2="4251.96"/><linearGradient id="l" gradientUnits="userSpaceOnUse" x1="1838.07" x2="834.997" xlink:href="#c" y1="1015.61" y2="4018.06"/><path d="m383.203 542.648c-9.2 170-239.5 211.5-353.5004 211-237.9996-46-148.4996-358-186.9996-422-80-154-117-287.9997 88.4996-548 205.5004-260 331.0004-37 558.0004-30s252.5 188.5003 272.5 247.000285c20 58.500015-10 199.499715-130 199.499715-285.5 2.5-248.5 287-248.5 342.5z" fill="url(#a)"/><path d="m1250.43 648.051c-164.37 50.013-149.69 284.641-121.81 395.699 102.26 221.02 386.47 58.41 458.43 80.51 170.13 40.84 310.32 44.58 515.7-218.613 205.38-263.19-43.28-331.753-104.69-551.454-61.4-219.701-245.37-200.754-307.5-206.137s-193.08 57.915-164.24 174.95c66.15 279.049-221.51 311.646-275.89 325.045z" fill="url(#b)"/><g stroke-linecap="round" stroke-linejoin="round"><path d="m239.636 5904.24c498.951 166.69 1074.454-61.36 1601.524-564.56 527.09-503.22 1005.86-1281.7 1311.4-2216.15 305.53-934.45 380-1847.99 253.39-2569.601-126.6-721.586-454.31-1251.385-953.26-1418.077-498.96-166.692-1074.46 61.359-1601.532 564.561-527.091 503.219-1005.856 1281.694-1311.392 2216.147-305.536 934.45-380.008 1847.99-253.397 2569.6 126.607 721.59 454.316 1251.39 953.267 1418.08z" stroke="url(#d)"/><path d="m316.443 5669.33c464.342 155.13 999.917-57.1 1490.407-525.36 490.51-468.29 936.05-1192.73 1220.37-2062.31 284.33-869.58 353.63-1719.71 235.8-2391.231-117.83-671.4992-422.8-1164.538-887.14-1319.667s-999.92 57.097-1490.411 525.366c-490.511 468.285-936.046 1192.722-1220.372 2062.302s-353.623 1719.71-235.794 2391.23c117.826 671.5 422.799 1164.54 887.14 1319.67z" stroke="url(#e)"/><path d="m393.255 5434.42c429.732 143.57 925.375-52.83 1379.285-486.17 453.93-433.35 866.24-1103.75 1129.35-1908.46 263.12-804.71 327.24-1591.43 218.2-2212.863-109.05-621.411-391.29-1077.689-821.02-1221.255-429.73-143.567-925.37 52.833-1379.286 486.1694-453.93 433.3526-866.2355 1103.7486-1129.351 1908.4586-263.116 804.71-327.241 1591.43-218.192 2212.87 109.045 621.41 391.2818 1077.68 821.014 1221.25z" stroke="url(#f)"/><path d="m470.06 5199.51c-395.122-132-654.623-551.52-754.887-1122.84-100.267-571.35-41.317-1294.65 200.5893-2034.5 241.9057-739.84 620.9807-1356.195 1038.3317-1754.615 417.336-398.403 873.046-578.978 1268.166-446.974 395.12 132.0046 654.63 551.521 754.89 1122.845 100.27 571.344 41.32 1294.644-200.59 2034.494s-620.98 1356.2-1038.33 1754.62c-417.33 398.4-873.047 578.98-1268.17 446.97z" stroke="url(#g)"/><path d="m546.87 4964.6c-360.513-120.44-597.2788-503.19-688.761-1024.43-91.486-521.26-37.71-1181.15 182.9864-1856.12 220.6966-674.98 566.5406-1237.294 947.3116-1600.781 380.753-363.47 796.533-528.2191 1157.053-407.7775 360.51 120.4415 597.27 503.1975 688.76 1024.4285 91.48 521.26 37.71 1181.15-182.99 1856.13s-566.54 1237.29-947.31 1600.77c-380.76 363.47-796.537 528.22-1157.05 407.78z" stroke="url(#h)"/><path d="m623.677 4729.69c-325.903-108.88-539.9328-454.87-622.63384-926.02-82.70516-471.17-34.10246-1067.65 165.38384-1677.75 199.486-610.11 512.1-1118.38 856.293-1446.937 344.17-328.537 720.02-477.462 1045.93-368.583 325.9 108.88 539.93 454.874 622.63 926.02 82.71 471.18 34.1 1067.65-165.38 1677.76-199.49 610.11-512.1 1118.38-856.29 1446.93-344.18 328.54-720.029 477.46-1045.933 368.58z" stroke="url(#i)"/><path d="m700.485 4494.78c-291.294-97.31-482.588-406.55-556.507-827.61-73.9245-421.08-30.496-954.14 147.781-1499.38 178.276-545.24 457.66-999.47 765.271-1293.092 307.59-293.604 643.51-426.703 934.81-329.387 291.29 97.317 482.59 406.551 556.51 827.609 73.92 421.09 30.49 954.15-147.79 1499.39-178.27 545.24-457.66 999.47-765.27 1293.09-307.59 293.6-643.511 426.7-934.805 329.38z" stroke="url(#j)"/><path d="m777.294 4259.87c-256.684-85.75-425.242-358.22-490.381-729.2-65.143-370.99-26.887-840.64 130.179-1321.01s403.22-880.56 674.248-1139.25c271.01-258.67 567.01-375.944 823.69-290.19 256.69 85.754 425.24 358.23 490.38 729.2 65.15 371 26.89 840.64-130.18 1321.01-157.06 480.38-403.22 880.57-674.25 1139.25-271.01 258.67-567 375.95-823.686 290.19z" stroke="url(#k)"/><path d="m854.102 4024.97c-222.075-74.2-367.897-309.91-424.255-630.79-56.361-320.91-23.28-727.15 112.577-1142.65 135.856-415.5 348.779-761.65 583.226-985.41 234.44-223.73 490.5-325.182 712.57-250.99 222.08 74.19 367.9 309.9 424.26 630.79 56.36 320.91 23.28 727.14-112.58 1142.64-135.86 415.51-348.78 761.66-583.23 985.41-234.43 223.74-490.49 325.19-712.568 251z" stroke="url(#l)"/></g></svg>