<svg width="60" height="42" viewBox="0 0 60 42" fill="none" xmlns="http://www.w3.org/2000/svg">
<path d="M12 6H48V30H54V4.5C54 2.02781 51.975 0 49.5 0H10.5C8.02781 0 6 2.02781 6 4.5V30H12V6ZM58.5 33H1.5C0.679688 33 0 33.6844 0 34.5V36C0 39.3047 2.69531 42 6 42H54C57.3047 42 60 39.3047 60 36V34.5C60 33.6844 59.325 33 58.5 33ZM34.3031 23.8313C34.6688 24.1969 35.1469 24.375 35.625 24.375C36.1031 24.375 36.5841 24.1933 36.9506 23.8271L41.4506 19.3271C42.183 18.5947 42.183 17.4052 41.4506 16.6731L36.9506 12.1731C36.2183 11.4406 35.0316 11.4406 34.2994 12.1731C33.567 12.9055 33.567 14.0949 34.2994 14.8271L37.4738 17.9996L34.2994 21.1721C33.5625 21.9094 33.5625 23.1 34.3031 23.8313ZM25.6969 12.1781C24.9645 11.4457 23.7778 11.4457 23.0456 12.1781L18.5456 16.6781C17.8133 17.4106 17.8133 18.6 18.5456 19.3322L23.0456 23.8322C23.4188 24.1969 23.8969 24.375 24.375 24.375C24.8531 24.375 25.3341 24.1933 25.7006 23.8271C26.433 23.0947 26.433 21.9053 25.7006 21.1731L22.5281 18L25.7025 14.8275C26.3531 14.1 26.3531 12.9094 25.6969 12.1781Z" fill="white"/>
</svg>
