<svg width="60" height="48" viewBox="0 0 60 48" fill="none" xmlns="http://www.w3.org/2000/svg">
<path d="M38.8875 3.82431L26.8875 45.8252C26.4281 47.419 24.7688 48.3377 23.175 47.8877C21.5813 47.4284 20.6625 45.769 21.1125 44.1752L33.1125 2.17618C33.5719 0.582993 35.2313 -0.339507 36.825 0.115743C38.4188 0.5709 39.3375 2.23149 38.8875 3.82431ZM48.6188 11.3815L59.1188 21.8815C60.2906 23.0534 60.2906 24.9471 59.1188 26.119L48.6188 36.619C47.4469 37.7909 45.5531 37.7909 44.3813 36.619C43.2094 35.4471 43.2094 33.5534 44.3813 32.3815L52.7531 24.0002L44.3813 15.619C43.2094 14.4471 43.2094 12.5534 44.3813 11.3815C45.5531 10.2096 47.4469 10.2096 48.6188 11.3815ZM15.6188 15.619L7.24219 24.0002L15.6188 32.3815C16.7906 33.5534 16.7906 35.4471 15.6188 36.619C14.4469 37.7909 12.5531 37.7909 11.3813 36.619L0.878625 26.119C-0.292875 24.9471 -0.292875 23.0534 0.878625 21.8815L11.3813 11.3815C12.5531 10.2096 14.4469 10.2096 15.6188 11.3815C16.7906 12.5534 16.7906 14.4471 15.6188 15.619Z" fill="white"/>
</svg>
