<svg fill="none" height="404" viewBox="0 0 1320 404" width="1320" xmlns="http://www.w3.org/2000/svg" xmlns:xlink="http://www.w3.org/1999/xlink"><linearGradient id="a" gradientUnits="userSpaceOnUse" x1="-5.36578" x2="442.856" y1="36.2798" y2="674.779"><stop offset="0" stop-color="#b6fcff"/><stop offset="1" stop-color="#c8f8fb" stop-opacity="0"/></linearGradient><linearGradient id="b" gradientUnits="userSpaceOnUse" x1="1361.88" x2="540.159" y1="759.678" y2="14.0158"><stop offset="0" stop-color="#f9f3bf"/><stop offset="1" stop-color="#faf2c0" stop-opacity="0"/></linearGradient><clipPath id="c"><path d="m0 0h1320v404h-1320z"/></clipPath><clipPath id="d"><path d="m0 0h1920v934h-1920z"/></clipPath><g clip-path="url(#c)"><g clip-path="url(#d)"><path d="m0 0h1920v934h-1920z" fill="#faf9f4"/><path d="m674.155 538.031c-14.316 155.469-372.668 193.422-550.055 192.965-370.334-42.068-231.07-327.399-290.977-385.929-124.482-140.836-182.055-263.3827 137.7081-501.159 319.7629-237.776 515.0439-33.837 868.2619-27.435 353.217 6.401 392.897 172.3872 424.017 225.8868s-15.56 182.4472-202.28 182.4472c-444.248 2.287-386.675 262.468-386.675 313.224z" fill="url(#a)"/><path d="m385.758 453.98c-215.316 63.058-199.568 347.787-164.78 482.27 130.298 266.96 503.715 65.47 597.345 91.29 221.507 47.2 404.487 49.76 676.447-272.765 271.97-322.522-51.68-402.275-128.65-668.2169-76.98-265.9411-317.44-240.3341-398.474-245.9941-81.033-5.66-252.918 73.0596-216.973 214.7814 82.311 337.9476-293.722 381.5956-364.915 398.6346z" fill="url(#b)"/></g></g></svg>