<svg fill="none" height="1373" viewBox="0 0 1920 1373" width="1920" xmlns="http://www.w3.org/2000/svg" xmlns:xlink="http://www.w3.org/1999/xlink"><linearGradient id="a" gradientUnits="userSpaceOnUse" x1="-53.5" x2="459.5" y1="-6.00196" y2="423.498"><stop offset="0" stop-color="#b6fcff"/><stop offset="1" stop-color="#c8f8fb" stop-opacity="0"/></linearGradient><linearGradient id="b" gradientUnits="userSpaceOnUse" x1="2263.68" x2="1382.76" y1="547.499" y2="650.927"><stop offset="0" stop-color="#f9f3bf"/><stop offset="1" stop-color="#faf2c0" stop-opacity="0"/></linearGradient><clipPath id="c"><path d="m0 0h1920v1373h-1920z"/></clipPath><g clip-path="url(#c)"><path d="m383.203 542.646c-9.2 170-239.5 211.5-353.5004 211-237.9996-46-148.4996-358-186.9996-422-80-154-117-287.9997 88.4996-548 205.5004-260 331.0004-37 558.0004-30s252.5 188.5003 272.5 247.000332c20 58.499968-10 199.499668-130 199.499668-285.5 2.5-248.5 287-248.5 342.5z" fill="url(#a)"/><path d="m1559.81 915.946c-76.14 154.014 104.85 304.034 204.87 359.784 231.07 76.88 307.27-241.57 372.66-278.861 146.29-95.97 245.03-195.552 193.96-525.465-51.08-329.914-271.36-195.705-473.48-301.453-202.13-105.7486-314.34 41.267-360.82 82.845s-90.06 180.343 14.96 239.499c248.63 142.94 75.34 374.852 47.85 423.651z" fill="url(#b)" opacity=".6"/></g></svg>