<svg width="48" height="48" viewBox="0 0 48 48" fill="none" xmlns="http://www.w3.org/2000/svg">
<path d="M15 33H33V15H15V33ZM42 16.5H46.5C47.325 16.5 48 15.825 48 15C48 14.175 47.3286 13.5 46.5 13.5H42V12C42 8.68594 39.3141 6 36 6H34.5V1.5C34.5 0.671625 33.825 0 33 0C32.1716 0 31.5 0.671625 31.5 1.5V6H25.5V1.5C25.5 0.671625 24.825 0 24 0C23.175 0 22.5 0.671625 22.5 1.5V6H16.5V1.5C16.5 0.671625 15.825 0 15 0C14.175 0 13.5 0.671625 13.5 1.5V6H12C8.68594 6 6 8.68594 6 12V13.5H1.5C0.671625 13.5 0 14.175 0 15C0 15.825 0.671625 16.5 1.5 16.5H6V22.5H1.5C0.671625 22.5 0 23.175 0 24C0 24.825 0.671625 25.5 1.5 25.5H6V31.5H1.5C0.671625 31.5 0 32.175 0 33C0 33.825 0.671625 34.5 1.5 34.5H6V36C6 39.3141 8.68594 42 12 42H13.5V46.5C13.5 47.325 14.175 48 15 48C15.8286 48 16.5 47.3284 16.5 46.5V42H22.5V46.5C22.5 47.3284 23.1716 48 24 48C24.8286 48 25.5 47.3284 25.5 46.5V42H31.5V46.5C31.5 47.3284 32.1716 48 33 48C33.8286 48 34.5 47.3284 34.5 46.5V42H36C39.3141 42 42 39.3141 42 36V34.5H46.5C47.3286 34.5 48 33.8284 48 33C48 32.1716 47.3286 31.5 46.5 31.5H42V25.5H46.5C47.325 25.5 48 24.825 48 24C48 23.175 47.3286 22.5 46.5 22.5H42V16.5ZM36 34.5C36 35.3284 35.3286 36 34.5 36H13.5C12.675 36 12 35.325 12 34.5V13.5C12 12.675 12.675 12 13.5 12H34.5C35.325 12 36 12.675 36 13.5V34.5Z" fill="white"/>
</svg>
