<svg width="42" height="48" viewBox="0 0 42 48" fill="none" xmlns="http://www.w3.org/2000/svg">
<path d="M21 6C16.8563 6 13.5 9.35812 13.5 13.5V18H36C39.3094 18 42 20.6906 42 24V42C42 45.3094 39.3094 48 36 48H6C2.68594 48 0 45.3094 0 42V24C0 20.6906 2.68594 18 6 18H7.5V13.5C7.5 6.04406 13.5469 0 21 0C26.3906 0 31.0312 3.15844 33.1969 7.71281C33.9094 9.20906 33.2719 10.9969 31.6969 11.7094C30.1969 12.4219 28.4906 11.7844 27.7781 10.2844C26.5687 7.74656 23.9906 6 21 6ZM24 36C25.6594 36 27 34.6594 27 33C27 31.3406 25.6594 30 24 30H18C16.3406 30 15 31.3406 15 33C15 34.6594 16.3406 36 18 36H24Z" fill="white"/>
</svg>
