<svg width="36" height="48" viewBox="0 0 36 48" fill="none" xmlns="http://www.w3.org/2000/svg">
<path d="M33 0C34.6594 0 36 1.34344 36 3C36 4.65656 34.6594 6 33 6V7.02938C33 11.0063 31.4156 14.8219 28.6031 17.6344L22.2469 24L28.6031 30.3656C31.4156 33.1781 33 36.9938 33 40.9688V42C34.6594 42 36 43.3406 36 45C36 46.6594 34.6594 48 33 48H3C1.34344 48 0 46.6594 0 45C0 43.3406 1.34344 42 3 42V40.9688C3 36.9938 4.58063 33.1781 7.39313 30.3656L13.7531 24L7.39313 17.6344C4.58063 14.8219 3 11.0063 3 7.02938V6C1.34344 6 0 4.65656 0 3C0 1.34344 1.34344 0 3 0H33ZM10.4156 12H25.5C26.475 10.5375 27 8.81063 27 7.02938V6H9V7.02938C9 8.81063 9.525 10.5375 10.4156 12ZM10.4156 36H25.5C25.1719 35.5031 24.7969 35.0344 24.3656 34.6031L18 28.2469L11.6344 34.6031C11.2031 35.0344 10.8281 35.5031 10.4156 36Z" fill="white"/>
</svg>
